inDegrees=yes
name=ik_Xsens_quaternion
DataType=double
version=3
OpenSimVersion=4.4-2022-07-23-0e9fedc
endheader
time	pelvis_tilt	pelvis_list	pelvis_rotation	pelvis_tx	pelvis_ty	pelvis_tz	hip_flexion_r	hip_adduction_r	hip_rotation_r	knee_angle_r	knee_angle_r_beta	ankle_angle_r	subtalar_angle_r	mtp_angle_r	hip_flexion_l	hip_adduction_l	hip_rotation_l	knee_angle_l	knee_angle_l_beta	ankle_angle_l	subtalar_angle_l	mtp_angle_l	lumbar_extension	lumbar_bending	lumbar_rotation	arm_flex_r	arm_add_r	arm_rot_r	elbow_flex_r	pro_sup_r	wrist_flex_r	wrist_dev_r	arm_flex_l	arm_add_l	arm_rot_l	elbow_flex_l	pro_sup_l	wrist_flex_l	wrist_dev_l
52.15	-1.360139889781474e-64	1.305734294190215e-62	4.352447647300717e-63	1.139468129491176e-64	0.93	5.697340647455879e-65	-3.166822459971239e-74	2.61146858838043e-62	0	2.426570649309934e-20	7.928130673751785e-23	-1.402021522703154e-53	-1.392783247136229e-61	-1.114226597708983e-60	3.422904108161997e-57	-5.100524586680527e-65	-1.168351268919295e-54	2.426570649309934e-20	7.732557810331848e-23	-3.738724060541744e-53	8.704895294601433e-63	5.348287669003121e-59	-1.632167867737769e-63	-2.190658629223678e-55	5.440559559125896e-64	1.740979058920287e-62	-1.869362030270872e-53	2.804043045406308e-53	2.426570649309934e-20	2.426570649309934e-20	4.381317258447356e-55	-5.608086090812616e-53	-87192473.77835272	552464123.2279607	-285674943.1737705	883139153.8289586	330574622.1093377	7.302195430745594e-56	-5.608086090812616e-53
52.16666666666666	-5.529999837694757e-84	4.718933194832859e-82	1.769599948062322e-82	4.118046071574423e-84	0.93	2.059023035787212e-84	-1.287553421616265e-93	9.437866389665719e-82	0	2.426570649309934e-20	7.928130673751785e-23	-5.066915935953982e-73	-5.662719833799431e-81	-4.530175867039545e-80	1.237040023426265e-76	-1.843333279231586e-84	-4.750233689956858e-74	2.426570649309934e-20	7.732557810331848e-23	-1.520074780786195e-72	3.539199896124645e-82	1.932875036603539e-78	-5.898666493541074e-83	-7.917056149928097e-75	2.211999935077903e-83	7.078399792249289e-82	-7.600373903930973e-73	1.013383187190796e-72	2.426570649309934e-20	2.426570649309934e-20	1.583411229985619e-74	-2.594260959208439e-70	-87192473.78878756	552464123.2338291	-285674943.1705135	883139153.8367877	330574622.1109262	2.968896056223036e-75	-2.594260959208439e-70
52.18333333333333	-1.998545945957714e-103	1.918604108119406e-101	6.395347027064686e-102	1.674297936448645e-103	0.93	8.371489682243225e-104	-4.653227389691663e-113	3.837208216238811e-101	0	2.426570649309934e-20	7.928130673751785e-23	-2.060085474586024e-92	-2.046511048660699e-100	-1.637208838928559e-99	5.029505553188535e-96	-7.494547297341428e-104	-1.716737895488353e-93	2.426570649309934e-20	7.732557810331848e-23	-5.49356126556273e-92	1.279069405412937e-101	7.858602426857086e-98	-2.398255135149257e-102	-3.218883554040662e-94	7.994183783830857e-103	2.558138810825874e-101	-2.746780632781365e-92	4.120170949172048e-92	2.426570649309934e-20	2.426570649309934e-20	6.437767108081324e-94	-1.350097616624697e-87	-87192473.80485956	552464123.2447705	-285674943.1646937	883139153.8383702	330574622.1282172	1.072961184680221e-94	-1.350097616624697e-87
52.2	-8.125604461572942e-123	6.933849140542244e-121	2.600193427703342e-121	6.05092486695206e-123	0.93	3.02546243347603e-123	-1.891889716864783e-132	1.386769828108449e-120	0	2.426570649309934e-20	7.928130673751785e-23	-7.445163823506662e-112	-8.320618968650693e-120	-6.656495174920554e-119	1.817666949098306e-115	-2.708534820524314e-123	-6.979841084537495e-113	2.426570649309934e-20	7.732557810331848e-23	-2.233549147051998e-111	5.200386855406683e-121	2.840104607966103e-117	-8.667311425677805e-122	-1.163306847422916e-113	3.250241784629177e-122	1.040077371081337e-120	-1.116774573525999e-111	1.489032764701332e-111	2.426570649309934e-20	2.426570649309934e-20	2.326613694845832e-113	-6.245456081117857e-105	-87192473.8243465	552464123.2502872	-285674943.1516639	883139153.8453516	330574622.1451232	4.362400677835935e-114	-6.245456081117857e-105
52.21666666666667	-2.936599336665097e-142	2.819135363198493e-140	9.397117877328311e-141	2.460159707360994e-142	0.93	1.230079853680497e-142	-6.837303137092612e-152	5.638270726396987e-140	0	2.426570649309934e-20	7.928130673751785e-23	-3.027023546983653e-131	-3.00707772074506e-139	-2.405662176596048e-138	7.390194206503058e-135	-1.101224751249411e-142	-2.522519622486377e-132	2.426570649309934e-20	7.732557810331848e-23	-8.072062791956407e-131	1.879423575465662e-140	1.154717844766103e-136	-3.523919203998117e-141	-4.729724292161957e-133	1.174639734666039e-141	3.758847150931324e-140	-4.036031395978204e-131	6.054047093967305e-131	2.426570649309934e-20	2.426570649309934e-20	9.459448584323915e-133	-3.250241784629177e-122	-87192473.84299906	552464123.2505496	-285674943.1419603	883139153.8558625	330574622.1534072	1.576574764053986e-133	-3.250241784629177e-122
52.23333333333333	-1.193950267699421e-161	1.018837561770173e-159	3.820640856638148e-160	8.89103499794031e-162	0.93	4.445517498970155e-162	-2.779882093191662e-171	2.037675123540345e-159	0	2.426570649309934e-20	7.928130673751785e-23	-1.093968501934818e-150	-1.222605074124207e-158	-9.780840592993658e-158	2.670821537926801e-154	-3.979834225664737e-162	-1.025595470563892e-151	2.426570649309934e-20	7.732557810331848e-23	-3.281905505804454e-150	7.641281713276295e-160	4.173158653010627e-156	-1.273546952212716e-160	-1.709325784273153e-152	4.775801070797684e-161	1.528256342655259e-159	-1.640952752902227e-150	2.187937003869636e-150	2.426570649309934e-20	2.426570649309934e-20	3.418651568546306e-152	-1.50353886037253e-139	-87192473.85513298	552464123.2577803	-285674943.1328132	883139153.8524851	330574622.1599921	6.409971691024324e-153	-1.50353886037253e-139
52.25	-4.314944913597873e-181	4.142347117053958e-179	1.380782372351319e-179	3.614879797654326e-181	0.93	1.807439898827163e-181	-1.004651401563984e-190	8.284694234107917e-179	0	2.426570649309934e-20	7.928130673751785e-23	-4.447811349106659e-170	-4.418503591524222e-178	-3.534802873219378e-177	1.085891442652993e-173	-1.618104342599202e-181	-3.706509457588882e-171	2.426570649309934e-20	7.732557810331848e-23	-1.186083026428442e-169	2.761564744702639e-179	1.696705379145301e-175	-5.177933896317448e-180	-6.949705232979154e-172	1.725977965439149e-180	5.523129489405278e-179	-5.930415132142212e-170	8.895622698213317e-170	2.426570649309934e-20	2.426570649309934e-20	1.389941046595831e-171	-7.824672474394926e-157	-87192473.86854151	552464123.2614932	-285674943.1261898	883139153.8507106	330574622.1807709	2.316568410993051e-172	-7.824672474394926e-157
52.26666666666667	-1.754352243554284e-200	1.497047247832989e-198	5.61392717937371e-199	1.30642017663026e-200	0.93	6.532100883151302e-201	-4.084669620623543e-210	2.994094495665978e-198	0	2.426570649309934e-20	7.928130673751785e-23	-1.607442242502374e-189	-1.796456697399587e-197	-1.43716535791967e-196	3.924419537359311e-193	-5.847840811847614e-201	-1.506977102345976e-190	2.426570649309934e-20	7.732557810331848e-23	-4.822326727507122e-189	1.122785435874742e-198	6.131905527123924e-195	-1.871309059791237e-199	-2.511628503909959e-191	7.017408974217137e-200	2.245570871749484e-198	-2.411163363753561e-189	3.214884485004748e-189	2.426570649309934e-20	2.426570649309934e-20	5.023257007819918e-191	-3.619638142176643e-174	-87192473.88843146	552464123.2554772	-285674943.1212459	883139153.8543991	330574622.1949357	9.418606889662347e-192	-3.619638142176643e-174
52.28333333333333	-6.340241712554579e-220	6.086632044052396e-218	2.028877348017465e-218	5.311588476305343e-220	0.93	2.655794238152671e-220	-1.476202558855195e-229	1.217326408810479e-217	0	2.426570649309934e-20	7.928130673751785e-23	-6.535471392997668e-209	-6.492407513655889e-217	-5.193926010924711e-216	1.595574070556071e-212	-2.377590642207967e-220	-5.44622616083139e-210	2.426570649309934e-20	7.732557810331848e-23	-1.742792371466045e-208	4.057754696034931e-218	2.493084485243861e-214	-7.608290055065495e-219	-1.021167405155886e-210	2.536096685021832e-219	8.115509392069862e-218	-8.713961857330224e-209	1.307094278599534e-208	2.426570649309934e-20	2.426570649309934e-20	2.042334810311771e-210	-1.883721377932469e-191	-87192473.90421633	552464123.251505	-285674943.1201293	883139153.8563625	330574622.1875787	3.403891350519619e-211	-1.883721377932469e-191
52.3	-2.577788939563084e-239	2.199713228427165e-237	8.248924606601868e-238	1.919611921786408e-239	0.93	9.598059608932038e-240	-6.001882580022988e-249	4.39942645685433e-237	0	2.426570649309934e-20	7.928130673751785e-23	-2.361924094168313e-228	-2.639655874112598e-236	-2.111724699290078e-235	5.766416245528107e-232	-8.592629798543613e-240	-2.214303838282793e-229	2.426570649309934e-20	7.732557810331848e-23	-7.085772282504938e-228	1.649784921320374e-237	9.010025383637667e-234	-2.749641535533956e-238	-3.690506397137988e-230	1.031115575825234e-238	3.299569842640747e-237	-3.542886141252469e-228	4.723848188336625e-228	2.426570649309934e-20	2.426570649309934e-20	7.381012794275977e-230	-8.713961857330224e-209	-87192473.91733406	552464123.2403518	-285674943.1138648	883139153.8538343	330574622.1884397	1.383939898926746e-230	-8.713961857330224e-209
52.31666666666666	-9.316147894944667e-259	8.94350197914688e-257	2.981167326382293e-257	7.804677809737115e-259	0.93	3.902338904868558e-259	-2.169084710754609e-268	1.788700395829376e-256	0	2.426570649309934e-20	7.928130673751785e-23	-9.603012128036781e-248	-9.539735444423339e-256	-7.631788355538671e-255	2.34448538282148e-251	-3.49355546060425e-259	-8.002510106697318e-249	2.426570649309934e-20	7.732557810331848e-23	-2.560803234143142e-247	5.962334652764587e-257	3.663258410658562e-253	-1.11793774739336e-257	-1.500470645005747e-249	3.726459157977867e-258	1.192466930552917e-256	-1.280401617071571e-247	1.920602425607356e-247	2.426570649309934e-20	2.426570649309934e-20	3.000941290011494e-249	-4.53489426080316e-226	-87192473.92780145	552464123.2345071	-285674943.1114327	883139153.851257	330574622.1837445	5.001568816685824e-250	-4.53489426080316e-226
52.33333333333334	-3.787720420085725e-278	3.232188091806485e-276	1.212070534427432e-276	2.820616212288796e-278	0.93	1.410308106144398e-278	-8.818973833894648e-288	6.464376183612971e-276	0	2.426570649309934e-20	7.928130673751785e-23	-3.470535537207375e-267	-3.878625710167782e-275	-3.102900568134226e-274	8.472987151385193e-271	-1.262573473361908e-278	-3.253627066131914e-268	2.426570649309934e-20	7.732557810331848e-23	-1.041160661162213e-266	2.424141068854864e-276	1.323904242403936e-272	-4.040235114758107e-277	-5.422711776886524e-269	1.51508816803429e-277	4.848282137709728e-276	-5.205803305811063e-267	6.94107107441475e-267	2.426570649309934e-20	2.426570649309934e-20	1.084542355377305e-268	-2.097810009410062e-243	-87192473.93928386	552464123.2258327	-285674943.1149307	883139153.8552606	330574622.1784369	2.033516916332446e-269	-2.097810009410062e-243
